<svg width="162" height="149" viewBox="0 0 162 149" fill="none" xmlns="http://www.w3.org/2000/svg">
<path d="M53.8702 119.489C53.8702 120.103 53.1234 120.594 52.1817 120.594C51.1101 120.686 50.3633 120.195 50.3633 119.489C50.3633 118.875 51.1101 118.384 52.0518 118.384C53.026 118.292 53.8702 118.783 53.8702 119.489ZM43.7716 118.108C43.5443 118.722 44.1937 119.428 45.1679 119.612C46.0121 119.919 46.9863 119.612 47.1811 118.998C47.3759 118.384 46.759 117.679 45.7848 117.402C44.9406 117.188 43.9989 117.494 43.7716 118.108ZM58.124 117.587C57.1823 117.801 56.5329 118.384 56.6303 119.09C56.7277 119.704 57.572 120.103 58.5461 119.888C59.4878 119.673 60.1372 119.09 60.0398 118.476C59.9424 117.893 59.0657 117.494 58.124 117.587ZM79.4902 8.67949e-08C34.4523 8.67949e-08 0 32.3118 0 74.8724C0 108.903 22.6651 138.023 55.0392 148.272C59.1955 148.978 60.6568 146.554 60.6568 144.559C60.6568 142.656 60.5593 132.162 60.5593 125.718C60.5593 125.718 37.8293 130.321 33.056 116.574C33.056 116.574 29.3542 107.644 24.0289 105.343C24.0289 105.343 16.5929 100.525 24.5485 100.617C24.5485 100.617 32.6339 101.231 37.0825 108.534C44.1937 120.379 56.1108 116.973 60.7542 114.948C61.501 110.038 79.8512 106.182 82.1891 104.156C64.0375 102.254 29.4841 100.219 29.4841 70.6992C29.4841 62.2607 31.952 58.0261 37.1474 52.6255C36.3031 50.6309 33.5431 42.4072 37.9917 31.7901C44.7782 29.7955 60.397 40.0752 60.397 40.0752C66.8913 38.3568 73.8727 37.4669 80.7891 37.4669C87.7055 37.4669 94.6869 38.3568 101.181 40.0752C101.181 40.0752 116.8 29.7649 123.587 31.7901C128.035 42.4379 125.275 50.6309 124.431 52.6255C129.626 58.0568 132.808 62.2914 132.808 70.6992C132.808 100.311 100.341 102.223 82.1891 104.156C85.1765 106.581 101.051 111.634 101.051 118.845C101.051 129.186 100.954 141.981 100.954 144.498C100.954 146.492 102.448 148.916 106.571 148.211C139.043 138.023 161.059 108.903 161.059 74.8724C161.059 32.3118 124.528 8.67949e-08 79.4902 8.67949e-08ZM31.5623 105.834C31.1402 106.141 31.2376 106.847 31.7896 107.43C32.3091 107.921 33.056 108.135 33.4781 107.736C33.9002 107.43 33.8028 106.724 33.2508 106.141C32.7313 105.65 31.9844 105.435 31.5623 105.834ZM28.0554 103.348C27.8281 103.747 28.1528 104.238 28.8022 104.545C29.3218 104.852 29.9712 104.76 30.1985 104.33C30.4258 103.931 30.1011 103.441 29.4517 103.134C28.8022 102.95 28.2827 103.042 28.0554 103.348ZM38.5761 114.272C38.0566 114.671 38.2514 115.592 38.9983 116.175C39.7451 116.881 40.6868 116.973 41.1089 116.482C41.5311 116.083 41.3362 115.162 40.6868 114.579C39.9724 113.874 38.9983 113.782 38.5761 114.272ZM34.8744 109.762C34.3548 110.069 34.3548 110.866 34.8744 111.572C35.3939 112.278 36.2707 112.585 36.6928 112.278C37.2123 111.879 37.2123 111.081 36.6928 110.375C36.2382 109.67 35.3939 109.363 34.8744 109.762Z" fill="black"/>
<path d="M29.4841 70.6992C29.4841 100.219 64.0375 102.254 82.1891 104.156C100.341 102.223 132.808 100.311 132.808 70.6992C132.808 62.2914 129.626 58.0568 124.431 52.6255C125.275 50.6309 128.035 42.4379 123.587 31.7901C116.8 29.7649 101.181 40.0752 101.181 40.0752C94.6869 38.3568 87.7055 37.4669 80.7891 37.4669C73.8727 37.4669 66.8913 38.3568 60.397 40.0752C60.397 40.0752 44.7782 29.7955 37.9917 31.7901C33.5431 42.4072 36.3031 50.6309 37.1474 52.6255C31.952 58.0261 29.4841 62.2607 29.4841 70.6992Z" fill="#FF0072"/>
</svg>
