<svg width="401" height="92" viewBox="0 0 401 92" fill="none" xmlns="http://www.w3.org/2000/svg">
<path d="M30.1028 73.9016C30.1028 74.2797 29.6855 74.5821 29.1593 74.5821C28.5605 74.6388 28.1431 74.3364 28.1431 73.9016C28.1431 73.5235 28.5605 73.221 29.0867 73.221C29.631 73.1643 30.1028 73.4668 30.1028 73.9016ZM24.4597 73.0509C24.3327 73.429 24.6956 73.8638 25.2399 73.9772C25.7117 74.1662 26.256 73.9772 26.3649 73.5991C26.4738 73.221 26.129 72.7862 25.5847 72.6161C25.1129 72.4838 24.5867 72.6728 24.4597 73.0509ZM32.4798 72.7295C31.9536 72.8619 31.5907 73.221 31.6452 73.6558C31.6996 74.0339 32.1714 74.2797 32.7157 74.1473C33.2419 74.015 33.6048 73.6558 33.5504 73.2777C33.496 72.9186 33.006 72.6728 32.4798 72.7295ZM44.4194 0.289475C19.252 0.289475 0 20.1954 0 46.4152C0 67.3797 12.6653 85.3196 30.756 91.6335C33.0786 92.0683 33.8952 90.5749 33.8952 89.3461C33.8952 88.1741 33.8407 81.7089 33.8407 77.7391C33.8407 77.7391 21.1391 80.5747 18.4718 72.1057C18.4718 72.1057 16.4032 66.6046 13.4274 65.1868C13.4274 65.1868 9.27218 62.2189 13.7177 62.2756C13.7177 62.2756 18.2359 62.6537 20.7218 67.1529C24.6956 74.4498 31.3548 72.3514 33.9496 71.1038C34.3669 68.0792 44.621 65.7035 45.9275 64.4559C35.7844 63.2838 16.4758 62.0299 16.4758 43.8442C16.4758 38.6457 17.8548 36.0369 20.7581 32.7098C20.2863 31.481 18.744 26.4148 21.2298 19.874C25.0222 18.6452 33.75 24.9781 33.75 24.9781C37.379 23.9195 41.2802 23.3712 45.1452 23.3712C49.0101 23.3712 52.9113 23.9195 56.5403 24.9781C56.5403 24.9781 65.2681 18.6263 69.0605 19.874C71.5464 26.4337 70.004 31.481 69.5323 32.7098C72.4355 36.0558 74.2137 38.6646 74.2137 43.8442C74.2137 62.0866 56.0706 63.2649 45.9275 64.4559C47.5969 65.9493 56.4677 69.0622 56.4677 73.5046C56.4677 79.8752 56.4133 87.7582 56.4133 89.3083C56.4133 90.5371 57.248 92.0305 59.5524 91.5957C77.6976 85.3196 90 67.3797 90 46.4152C90 20.1954 69.5867 0.289475 44.4194 0.289475ZM17.6371 65.4893C17.4012 65.6783 17.4556 66.1131 17.7641 66.4723C18.0544 66.7748 18.4718 66.9071 18.7077 66.6614C18.9435 66.4723 18.8891 66.0375 18.5806 65.6783C18.2903 65.3759 17.873 65.2435 17.6371 65.4893ZM15.6774 63.9581C15.5504 64.2038 15.7319 64.5063 16.0948 64.6953C16.3851 64.8844 16.748 64.8277 16.875 64.563C17.002 64.3173 16.8206 64.0148 16.4577 63.8258C16.0948 63.7123 15.8044 63.769 15.6774 63.9581ZM21.5565 70.6879C21.2661 70.9337 21.375 71.5008 21.7923 71.86C22.2097 72.2947 22.7359 72.3515 22.9718 72.049C23.2077 71.8032 23.0988 71.2361 22.7359 70.8769C22.3367 70.4421 21.7923 70.3854 21.5565 70.6879ZM19.4879 67.909C19.1976 68.0981 19.1976 68.5896 19.4879 69.0243C19.7782 69.4591 20.2681 69.6482 20.504 69.4591C20.7944 69.2134 20.7944 68.7219 20.504 68.2871C20.25 67.8523 19.7782 67.6633 19.4879 67.909Z" fill="white"/>
<path d="M16.4758 43.8442C16.4758 62.0299 35.7844 63.2838 45.9275 64.4559C56.0706 63.2649 74.2137 62.0866 74.2137 43.8442C74.2137 38.6646 72.4355 36.0558 69.5323 32.7098C70.004 31.481 71.5464 26.4337 69.0605 19.874C65.2681 18.6263 56.5403 24.9781 56.5403 24.9781C52.9113 23.9195 49.0101 23.3712 45.1452 23.3712C41.2802 23.3712 37.379 23.9195 33.75 24.9781C33.75 24.9781 25.0222 18.6452 21.2298 19.874C18.744 26.4148 20.2863 31.481 20.7581 32.7098C17.8548 36.0369 16.4758 38.6457 16.4758 43.8442Z" fill="#FF0072"/>
<path d="M131.091 40.5737C130.716 39.426 130.222 38.3975 129.608 37.4885C129.006 36.568 128.284 35.7839 127.443 35.1362C126.614 34.4885 125.67 33.9941 124.614 33.6532C123.557 33.3123 122.398 33.1419 121.136 33.1419C119.068 33.1419 117.188 33.676 115.494 34.7441C113.801 35.8123 112.455 37.3862 111.455 39.4657C110.455 41.5453 109.955 44.0964 109.955 47.1191C109.955 50.1419 110.46 52.693 111.472 54.7725C112.483 56.8521 113.852 58.426 115.58 59.4941C117.307 60.5623 119.25 61.0964 121.409 61.0964C123.409 61.0964 125.17 60.6703 126.693 59.818C128.227 58.9544 129.42 57.7385 130.273 56.1703C131.136 54.5907 131.568 52.7328 131.568 50.5964L132.864 50.8691H122.364V47.1191H135.659V50.8691C135.659 53.7441 135.045 56.2441 133.818 58.3691C132.602 60.4941 130.92 62.1419 128.773 63.3123C126.636 64.4714 124.182 65.051 121.409 65.051C118.318 65.051 115.602 64.3237 113.261 62.8691C110.932 61.4146 109.114 59.3464 107.807 56.6646C106.511 53.9828 105.864 50.801 105.864 47.1191C105.864 44.3578 106.233 41.8748 106.972 39.6703C107.722 37.4544 108.778 35.568 110.142 34.0112C111.506 32.4544 113.119 31.2612 114.983 30.4316C116.847 29.6021 118.898 29.1873 121.136 29.1873C122.977 29.1873 124.693 29.4657 126.284 30.0225C127.886 30.568 129.312 31.3464 130.562 32.3578C131.824 33.3578 132.875 34.5566 133.716 35.9544C134.557 37.3407 135.136 38.8805 135.455 40.5737H131.091ZM147.126 29.6646V64.5737H142.899V29.6646H147.126ZM153.693 33.4146V29.6646H179.875V33.4146H168.898V64.5737H164.67V33.4146H153.693Z" fill="white"/>
<path d="M195.876 64.5737H182.24L188.036 29.6646H201.126C204.717 29.6646 207.717 30.3862 210.126 31.8294C212.536 33.2725 214.246 35.335 215.257 38.0169C216.268 40.6987 216.467 43.8919 215.854 47.5964C215.263 51.1646 214.064 54.2157 212.257 56.7498C210.462 59.2839 208.166 61.2214 205.371 62.5623C202.587 63.9032 199.422 64.5737 195.876 64.5737ZM193.047 56.5282H196.49C198.217 56.5282 199.757 56.2271 201.109 55.6248C202.473 55.0112 203.609 53.9885 204.518 52.5566C205.439 51.1135 206.104 49.1419 206.513 46.6419C206.899 44.2782 206.888 42.4544 206.479 41.1703C206.07 39.8748 205.291 38.9771 204.143 38.4771C202.996 37.9657 201.513 37.71 199.695 37.71H196.183L193.047 56.5282ZM224.308 64.5737H214.081L231.399 29.6646H244.354L250.081 64.5737H239.854L236.445 39.2782H236.172L224.308 64.5737ZM224.717 50.801H243.945L242.717 57.8919H223.49L224.717 50.801ZM252.582 37.301L253.878 29.6646H284.219L282.923 37.301H272.423L267.923 64.5737H258.582L263.082 37.301H252.582ZM281.99 64.5737L287.786 29.6646H312.945L311.649 37.301H295.967L295.013 43.301H309.399L308.104 50.9373H293.717L292.763 56.9373H308.376L307.081 64.5737H281.99ZM334.622 40.5737C334.724 39.4487 334.452 38.568 333.804 37.9316C333.156 37.2839 332.065 36.96 330.531 36.96C329.554 36.96 328.736 37.0737 328.077 37.301C327.429 37.5282 326.923 37.8407 326.56 38.2385C326.207 38.6362 325.986 39.0964 325.895 39.6191C325.793 40.0282 325.798 40.4032 325.912 40.7441C326.037 41.0737 326.27 41.3748 326.611 41.6475C326.963 41.9203 327.423 42.1646 327.991 42.3805C328.571 42.5964 329.259 42.7896 330.054 42.96L332.781 43.5737C334.645 43.9828 336.207 44.5225 337.469 45.193C338.741 45.8521 339.741 46.6362 340.469 47.5453C341.196 48.4544 341.673 49.4714 341.901 50.5964C342.139 51.7214 342.145 52.9487 341.918 54.2782C341.531 56.5737 340.639 58.5169 339.241 60.1078C337.844 61.6987 336.02 62.9089 333.77 63.7385C331.52 64.568 328.918 64.9828 325.963 64.9828C322.94 64.9828 320.372 64.5339 318.259 63.6362C316.156 62.7271 314.634 61.3407 313.69 59.4771C312.759 57.6021 312.531 55.21 313.009 52.301H322.009C321.872 53.3691 321.986 54.2669 322.349 54.9941C322.713 55.7214 323.298 56.2725 324.105 56.6475C324.912 57.0225 325.918 57.21 327.122 57.21C328.145 57.21 329.02 57.085 329.747 56.835C330.474 56.585 331.048 56.2385 331.469 55.7953C331.889 55.3521 332.145 54.8464 332.236 54.2782C332.327 53.7555 332.236 53.2896 331.963 52.8805C331.69 52.4714 331.196 52.1021 330.48 51.7725C329.764 51.443 328.781 51.1419 327.531 50.8691L324.19 50.1191C321.224 49.4373 318.986 48.3123 317.474 46.7441C315.963 45.176 315.429 43.0282 315.872 40.301C316.236 38.0737 317.151 36.1305 318.616 34.4714C320.094 32.801 321.969 31.5055 324.241 30.585C326.526 29.6532 329.054 29.1873 331.827 29.1873C334.645 29.1873 337.003 29.6589 338.901 30.6021C340.81 31.5453 342.179 32.8691 343.009 34.5737C343.849 36.2782 344.077 38.2782 343.69 40.5737H334.622ZM349.273 65.1191C347.943 65.1191 346.858 64.6589 346.017 63.7385C345.188 62.8066 344.841 61.676 344.977 60.3464C345.114 59.051 345.699 57.943 346.733 57.0225C347.778 56.1021 348.966 55.6419 350.295 55.6419C351.557 55.6419 352.608 56.1021 353.449 57.0225C354.301 57.943 354.659 59.051 354.523 60.3464C354.432 61.2328 354.119 62.0396 353.585 62.7669C353.063 63.4828 352.415 64.0566 351.642 64.4885C350.881 64.9089 350.091 65.1191 349.273 65.1191ZM364.273 65.1191C362.943 65.1191 361.858 64.6589 361.017 63.7385C360.188 62.8066 359.841 61.676 359.977 60.3464C360.114 59.051 360.699 57.943 361.733 57.0225C362.778 56.1021 363.966 55.6419 365.295 55.6419C366.557 55.6419 367.608 56.1021 368.449 57.0225C369.301 57.943 369.659 59.051 369.523 60.3464C369.432 61.2328 369.119 62.0396 368.585 62.7669C368.063 63.4828 367.415 64.0566 366.642 64.4885C365.881 64.9089 365.091 65.1191 364.273 65.1191ZM379.273 65.1191C377.943 65.1191 376.858 64.6589 376.017 63.7385C375.188 62.8066 374.841 61.676 374.977 60.3464C375.114 59.051 375.699 57.943 376.733 57.0225C377.778 56.1021 378.966 55.6419 380.295 55.6419C381.557 55.6419 382.608 56.1021 383.449 57.0225C384.301 57.943 384.659 59.051 384.523 60.3464C384.432 61.2328 384.119 62.0396 383.585 62.7669C383.063 63.4828 382.415 64.0566 381.642 64.4885C380.881 64.9089 380.091 65.1191 379.273 65.1191Z" fill="#FF0072"/>
</svg>
