<?xml version="1.0"?>
<svg version="1.1" xmlns="http://www.w3.org/2000/svg" width="400px" height="147px" style=""><path fill="#ff0072" d="M123.62,80.845l-0.13,2.08q0,4.225,4.55,4.225q3.77,0,7.605-2.6t3.835-5.265t-3.12-4.485q-2.08-1.235-6.5-1.235q-6.565,0-14.6575,3.12t-15.1775,10.01q-9.295,9.1-9.295,16.705q0,4.485,3.4125,7.215t8.9375,2.73q7.67,0,17.81-5.785q8.45-4.745,12.675-10.075l1.885-2.795q-1.17,0-9.685,0.6825t-9.75,0.975t-2.015,0.2925q-2.145,0-2.145-1.04q0-1.625,4.94-2.6975t16.705-1.0725t15.535,0.91q0.585,0.13,0.585,0.325q0,0.715-4.485,1.04q-5.59,0.455-5.72,0.455q-6.63,8.71-17.16,26.91q-0.585,1.04-1.1375,1.04t-0.5525-0.845q0-2.275,3.64-8.775l4.55-8.515q-4.16,3.575-10.595,6.695q-8.385,3.965-15.8275,3.965t-11.375-3.2175t-3.9325-8.6125q0-9.945,12.025-20.215q6.045-5.2,14.625-8.645t15.0475-3.445t9.9125,2.535q2.665,2.08,2.665,4.68q0,3.705-4.5825,7.1175t-9.0675,3.4125q-6.045,0-6.045-6.955q0-2.665,1.105-2.665q0.91,0,0.91,1.82z M160.64855,86.5975q0.8775,0.6175,0.8775,1.4625t-0.8125,1.4625t-1.7875,0.6175t-1.7875-0.715t-0.8125-1.625q0-1.82,2.47-1.82q0.975,0,1.8525,0.6175z M147.03105,113.215q-3.315,0-3.315-4.29q0-3.51,3.835-9.7175t6.175-6.2725q0.65,0,1.4625,0.52t0.8125,1.04q-0.325,0.455-0.78,1.0075t-0.975,1.2025t-1.43,1.8525t-1.755,2.3075q-4.875,6.305-4.875,8.6775t1.625,2.3725q1.365,0,3.705-1.495q5.46-3.38,8.645-7.41q1.17-1.495,1.5925-1.495t0.4225,0.52t-1.495,2.08t-2.3725,2.47t-1.2025,1.2025t-1.2025,1.105t-1.3325,1.1375t-1.3,0.975t-1.495,0.9425t-1.495,0.6825q-1.365,0.585-3.25,0.585z M179.2171,91.57l9.36-0.13q0.195,0.13,0.195,0.195q0,0.585-8.0925,1.625t-8.7425,1.235q-1.235,1.105-4.55,6.5975t-3.315,8.0275q0,2.405,3.315,2.405q1.56,0,4.095-0.975t3.9-1.82q3.64-2.275,7.8-6.695q0.91-0.91,1.235-0.91q0.195,0,0.195,0.39t-0.975,1.56q-3.38,4.16-7.605,6.695q-5.07,3.12-9.685,3.12q-2.015,0-3.2825-0.8775t-1.2675-3.5425t2.34-7.3125t3.575-6.9225q-0.91,0.195-1.56,0.195q-1.885,0-1.885-1.495q0-1.105,1.56-1.56q0.195,0,0.585-0.065l3.77,0q1.17-1.495,2.665-3.445q1.82-2.34,2.47-2.34t1.625,0.52t0.975,1.235t-3.12,4.225q1.69,0.065,4.42,0.065z"/><path fill="#" d="M185.74359863281,61.49365234375q0-2.2900390625,0.78515625-3.0751953125t2.19189453125-0.78515625q0.392578125,0,0.834228515625,0.0654296875t0.834228515625,0.1962890625q2.19189453125-0.42529296875,4.15478515625-0.42529296875q3.17333984375,0,5.7578125,1.1123046875q4.15478515625,1.7666015625,6.8701171875,5.234375t3.9912109375,8.14599609375t1.27587890625,9.58544921875q0,2.748046875-0.376220703125,5.72509765625t-1.455810546875,5.52880859375q-0.94873046875,2.2900390625-2.6171875,4.792724609375t-3.778564453125,4.74365234375t-4.54736328125,3.92578125t-4.923583984375,2.273681640625l0,0.26171875q0,0.654296875-0.343505859375,1.063232421875t-0.834228515625,0.62158203125t-1.128662109375,0.278076171875t-1.194091796875,0.0654296875q-0.3271484375,0-0.932373046875-0.0654296875t-1.177734375-0.245361328125t-0.965087890625-0.474365234375t-0.392578125-0.81787109375q0-5.9541015625-0.310791015625-11.924560546875t-0.703369140625-11.94091796875t-0.703369140625-11.924560546875t-0.310791015625-11.94091796875z M191.92670410156,59.8251953125q0.3271484375,3.140625,0.42529296875,6.264892578125t0.29443359375,6.264892578125q0.5234375,8.11328125,1.21044921875,16.144775390625t0.81787109375,16.144775390625q3.140625-2.06103515625,5.381591796875-4.7109375t3.680419921875-5.7578125t2.110107421875-6.526611328125t0.670654296875-7.050048828125q0-2.6171875-0.4580078125-5.7578125t-1.5703125-6.05224609375t-2.993408203125-5.26708984375t-4.694580078125-3.36962890625q-0.5888671875-0.1962890625-1.423095703125-0.3271484375t-2.666259765625-0.130859375q-0.1962890625,0-0.392578125,0.0654296875t-0.392578125,0.0654296875z M219.10194335938,94.79736328125q0-2.224609375,0.605224609375-4.28564453125t1.815673828125-3.680419921875t3.026123046875-2.58447265625t4.203857421875-0.965087890625q1.47216796875,0,3.255126953125,0.441650390625t3.353271484375,1.30859375t2.6171875,2.208251953125t1.046875,3.0751953125q0,0.81787109375-0.278076171875,1.2431640625t-1.128662109375,0.42529296875l-0.35986328125-0.0654296875q0.94873046875,2.5517578125,1.6357421875,5.234375t1.34130859375,5.365234375q0.26171875,0.5234375,0.392578125,0.932373046875t0.130859375,0.801513671875q0,0.5234375-0.29443359375,0.866943359375t-0.768798828125,0.507080078125t-0.9814453125,0.22900390625t-0.899658203125,0.0654296875q-1.40673828125,0-2.110107421875-0.49072265625t-1.01416015625-1.34130859375t-0.376220703125-1.913818359375t-0.26171875-2.142822265625q-0.392578125,1.27587890625-1.030517578125,2.486328125t-1.5048828125,2.175537109375t-2.044677734375,1.53759765625t-2.64990234375,0.572509765625q-2.1591796875,0-3.63134765625-1.2431640625t-2.371826171875-3.058837890625t-1.30859375-3.876708984375t-0.408935546875-3.82763671875z M223.74745117188,94.33935546875q0,1.21044921875,0.16357421875,2.5517578125t0.539794921875,2.64990234375t0.965087890625,2.469970703125t1.47216796875,2.044677734375q1.60302734375-1.73388671875,2.371826171875-4.22021484375t1.3740234375-4.792724609375t1.3740234375-3.95849609375t2.371826171875-1.652099609375q1.01416015625,0,1.701171875,0.35986328125q-0.3271484375-0.81787109375-1.07958984375-1.586669921875t-1.684814453125-1.40673828125t-1.93017578125-1.046875t-1.881103515625-0.408935546875q-0.26171875,0-0.605224609375,0.081787109375t-0.539794921875,0.016357421875q-1.34130859375,0.392578125-2.208251953125,1.357666015625t-1.40673828125,2.273681640625t-0.768798828125,2.6826171875t-0.22900390625,2.58447265625z M246.11360839844,74.0234375q0-0.4580078125,0.9814453125-0.78515625t2.224609375-0.539794921875t2.404541015625-0.310791015625t1.586669921875-0.16357421875q0-0.88330078125,0.0654296875-1.782958984375t0.35986328125-1.60302734375t0.932373046875-1.128662109375t1.782958984375-0.42529296875q0.94873046875,0,1.439453125,0.22900390625t1.046875,0.94873046875q0.130859375,0.392578125,0.130859375,0.75244140625l0,1.095947265625t-0.0654296875,1.128662109375q1.21044921875-0.130859375,2.404541015625-0.310791015625t2.404541015625-0.179931640625q0.88330078125,0,1.21044921875,0.03271484375t0.654296875,0.78515625q0.26171875,0.75244140625-0.637939453125,1.14501953125t-2.1591796875,0.5888671875t-2.502685546875,0.29443359375t-1.5048828125,0.09814453125q-0.392578125,5.626953125-0.801513671875,11.15576171875t-0.408935546875,11.22119140625q0,2.5517578125,0.16357421875,5.26708984375t0.916015625,5.13623046875q0.1962890625,0.75244140625,0.654296875,1.40673828125t0.4580078125,1.40673828125q0,0.4580078125-0.35986328125,0.7197265625t-0.866943359375,0.441650390625t-1.01416015625,0.212646484375t-0.834228515625,0.03271484375q-2.06103515625,0-3.140625-1.53759765625t-1.553955078125-3.680419921875t-0.507080078125-4.400146484375t-0.03271484375-3.6640625q0-2.87890625,0.114501953125-5.888671875t0.278076171875-5.9541015625t0.4580078125-5.7578125t0.68701171875-5.234375q-1.14501953125,0.130859375-2.240966796875,0.29443359375t-2.240966796875,0.16357421875q-0.26171875,0-0.703369140625-0.03271484375t-0.834228515625-0.16357421875t-0.670654296875-0.35986328125t-0.278076171875-0.654296875z M271.12966796875,96.138671875q0-2.2900390625,0.507080078125-5.39794921875t1.717529296875-5.888671875t3.189697265625-4.727294921875t4.989013671875-1.946533203125q2.8134765625,0,4.22021484375,1.619384765625t1.40673828125,4.367431640625q0,1.79931640625-0.670654296875,3.942138671875t-1.913818359375,4.056640625t-2.9443359375,3.189697265625t-3.794921875,1.27587890625l-0.8505859375-0.0654296875q0,0.88330078125,0.26171875,2.371826171875t0.768798828125,2.960693359375t1.30859375,2.58447265625t1.946533203125,1.1123046875q1.66845703125,0,3.2060546875-1.34130859375t2.91162109375-2.97705078125t2.5517578125-2.97705078125t2.1591796875-1.34130859375q0.5234375,0,1.07958984375,0.16357421875t0.62158203125,0.916015625q0,0.4580078125-0.245361328125,0.75244140625t-0.441650390625,0.654296875q-1.01416015625,1.73388671875-2.208251953125,3.30419921875t-2.698974609375,2.84619140625t-3.287841796875,2.011962890625t-3.942138671875,0.736083984375q-2.8134765625,0-4.67822265625-0.997802734375t-3.009765625-2.6826171875t-1.652099609375-3.89306640625t-0.507080078125-4.629150390625z M276.985625,93.65234375l0.916015625,0.81787109375q0.654296875,0.5888671875,1.30859375,0.26171875t1.177734375-1.194091796875t0.965087890625-2.142822265625t0.78515625-2.6171875t0.507080078125-2.6171875t0.16357421875-2.12646484375l0-1.1123046875t-0.09814453125-1.177734375t-0.343505859375-0.932373046875t-0.768798828125-0.474365234375q-0.16357421875-0.03271484375-0.29443359375-0.03271484375q-1.1123046875,0-1.8974609375,1.40673828125q-0.8505859375,1.5703125-1.3740234375,3.811279296875t-0.75244140625,4.596435546875t-0.29443359375,3.533203125z M298.46848144531,86.35693359375q0-1.34130859375,0.78515625-2.306396484375t1.913818359375-1.5703125t2.469970703125-0.899658203125t2.486328125-0.29443359375q0.88330078125,0,2.35546875,0.26171875t2.87890625,0.78515625t2.437255859375,1.3740234375t1.030517578125,1.99560546875q0,0.5234375-0.392578125,0.932373046875t-0.81787109375,0.408935546875q-0.88330078125,0-1.60302734375-0.572509765625t-1.488525390625-1.21044921875t-1.684814453125-1.21044921875t-2.06103515625-0.572509765625t-2.077392578125,0.736083984375t-0.932373046875,1.946533203125q0,1.99560546875,1.40673828125,3.909423828125t3.091552734375,4.02392578125t3.091552734375,4.432861328125t1.40673828125,5.13623046875q0,1.21044921875-0.507080078125,2.044677734375t-1.34130859375,1.357666015625t-1.881103515625,0.801513671875t-2.0283203125,0.278076171875q-1.07958984375,0-2.51904296875-0.507080078125t-2.71533203125-1.34130859375t-2.142822265625-1.946533203125t-0.866943359375-2.32275390625q0-0.5888671875,0.834228515625-0.75244140625t1.226806640625-0.16357421875q0.1962890625,0,0.605224609375,0.130859375t0.801513671875,0.29443359375t0.703369140625,0.35986328125t0.245361328125,0.42529296875q0.3271484375,0.392578125,0.997802734375,1.161376953125t1.34130859375,1.2431640625t1.177734375,0.343505859375t0.507080078125-1.47216796875q0-2.5517578125-1.3740234375-4.694580078125t-2.993408203125-4.1875t-2.993408203125-4.056640625t-1.3740234375-4.302001953125z"/></svg>
